<?xml version="1.0" encoding="UTF-8" standalone="no"?>
<!-- Created with Inkscape (http://www.inkscape.org/) -->

<svg
   xmlns:dc="http://purl.org/dc/elements/1.1/"
   xmlns:cc="http://creativecommons.org/ns#"
   xmlns:rdf="http://www.w3.org/1999/02/22-rdf-syntax-ns#"
   xmlns:svg="http://www.w3.org/2000/svg"
   xmlns="http://www.w3.org/2000/svg"
   xmlns:xlink="http://www.w3.org/1999/xlink"
   xmlns:sodipodi="http://sodipodi.sourceforge.net/DTD/sodipodi-0.dtd"
   xmlns:inkscape="http://www.inkscape.org/namespaces/inkscape"
   width="2200"
   height="1080"
   id="svg7180"
   version="1.1"
   inkscape:version="0.48.4 r9939"
   sodipodi:docname="intro.svg"
   inkscape:export-filename="C:\Users\neosam\Documents\programming\ld29\core\assets\intro.png"
   inkscape:export-xdpi="90"
   inkscape:export-ydpi="90">
  <defs
     id="defs7182">
    <linearGradient
       id="linearGradient7868">
      <stop
         style="stop-color:#286bff;stop-opacity:1;"
         offset="0"
         id="stop7870" />
      <stop
         style="stop-color:#28dfff;stop-opacity:1;"
         offset="1"
         id="stop7872" />
    </linearGradient>
    <linearGradient
       inkscape:collect="always"
       xlink:href="#linearGradient7868"
       id="linearGradient7878"
       x1="880.00006"
       y1="990.00012"
       x2="894.28571"
       y2="58.571411"
       gradientUnits="userSpaceOnUse" />
  </defs>
  <sodipodi:namedview
     id="base"
     pagecolor="#ffffff"
     bordercolor="#666666"
     borderopacity="1.0"
     inkscape:pageopacity="0.0"
     inkscape:pageshadow="2"
     inkscape:zoom="0.35"
     inkscape:cx="914.02299"
     inkscape:cy="520"
     inkscape:document-units="px"
     inkscape:current-layer="layer1"
     showgrid="false"
     inkscape:window-width="1343"
     inkscape:window-height="656"
     inkscape:window-x="77"
     inkscape:window-y="48"
     inkscape:window-maximized="0" />
  <metadata
     id="metadata7185">
    <rdf:RDF>
      <cc:Work
         rdf:about="">
        <dc:format>image/svg+xml</dc:format>
        <dc:type
           rdf:resource="http://purl.org/dc/dcmitype/StillImage" />
        <dc:title></dc:title>
      </cc:Work>
    </rdf:RDF>
  </metadata>
  <g
     inkscape:label="Ebene 1"
     inkscape:groupmode="layer"
     id="layer1"
     transform="translate(0,27.637817)">
    <rect
       style="fill:url(#linearGradient7878);fill-opacity:1;stroke:none"
       id="rect7358"
       width="2420"
       height="1231.4286"
       x="-122.85714"
       y="-42.857143"
       transform="translate(0,-27.637817)" />
    <g
       transform="matrix(3.3023696,0,0,2.6120243,1576.7095,-2170.4901)"
       id="layer1-1"
       inkscape:label="Ebene 1">
      <path
         sodipodi:nodetypes="ssssss"
         inkscape:connector-curvature="0"
         id="path4869"
         d="m 65.714284,33.464284 c 0,13.807119 -11.904538,26.428572 -25.267857,26.428572 -13.363318,0 -29.374999,-11.371452 -29.374999,-25.178571 0,-13.807119 8.855078,-30.9526627 24.732142,-25.0000009 16.10269,6.0372539 0.682363,17.6043799 14.609459,0.6259019 8.147897,-9.93307664 15.301255,16.220538 15.301255,23.124098 z"
         style="fill:#ff2020;fill-opacity:1;stroke:#000000;stroke-width:4.58599997;stroke-miterlimit:4;stroke-opacity:1;stroke-dasharray:none"
         transform="translate(-6.25,987.64789)" />
      <path
         inkscape:connector-curvature="0"
         id="path5382"
         d="m 36.071429,1001.4693 c 2.142857,-10.17855 2.142857,-10.17855 2.142857,-10.17855"
         style="fill:none;stroke:#000000;stroke-width:4.4000001;stroke-linecap:round;stroke-linejoin:miter;stroke-miterlimit:0;stroke-opacity:1;stroke-dasharray:none" />
    </g>
    <g
       inkscape:label="Layer 1"
       id="layer1-8"
       transform="matrix(-3.8294673,0,0,4.0270401,1098.9174,315.62187)">
      <path
         transform="matrix(0.96588581,0,0,1.0070269,2.1639555,-0.40923576)"
         d="m 62.545456,32.363636 c 0,16.668958 -13.919875,30.181818 -31.09091,30.181818 -17.171035,0 -31.09090998,-13.51286 -31.09090998,-30.181818 0,-16.668958 13.91987498,-30.181818 31.09090998,-30.181818 17.171035,0 31.09091,13.51286 31.09091,30.181818 z"
         sodipodi:ry="30.181818"
         sodipodi:rx="31.09091"
         sodipodi:cy="32.363636"
         sodipodi:cx="31.454546"
         id="path5972"
         style="fill:#00f453;fill-opacity:1;stroke:#000000;stroke-width:4.4000001;stroke-linecap:round;stroke-miterlimit:0;stroke-opacity:1;stroke-dasharray:none"
         sodipodi:type="arc" />
      <path
         d="m 31.090909,20.636364 c 0,4.36807 -3.825931,7.909091 -8.545455,7.909091 -4.719524,0 -8.545455,-3.541021 -8.545455,-7.909091 0,-4.36807 3.825931,-7.909091 8.545455,-7.909091 4.719524,0 8.545455,3.541021 8.545455,7.909091 z"
         sodipodi:ry="7.909091"
         sodipodi:rx="8.545455"
         sodipodi:cy="20.636364"
         sodipodi:cx="22.545454"
         id="path6482"
         style="fill:#ffffff;fill-opacity:1;stroke:#000000;stroke-width:4.4000001;stroke-linecap:round;stroke-miterlimit:0;stroke-opacity:1;stroke-dasharray:none"
         sodipodi:type="arc" />
      <path
         d="m 31.090909,20.636364 c 0,4.36807 -3.825931,7.909091 -8.545455,7.909091 -4.719524,0 -8.545455,-3.541021 -8.545455,-7.909091 0,-4.36807 3.825931,-7.909091 8.545455,-7.909091 4.719524,0 8.545455,3.541021 8.545455,7.909091 z"
         sodipodi:ry="7.909091"
         sodipodi:rx="8.545455"
         sodipodi:cy="20.636364"
         sodipodi:cx="22.545454"
         id="path6482-6"
         style="fill:#ffffff;fill-opacity:1;stroke:#000000;stroke-width:4.4000001;stroke-linecap:round;stroke-miterlimit:0;stroke-opacity:1;stroke-dasharray:none"
         sodipodi:type="arc"
         transform="translate(21.09091,0.27272718)" />
      <path
         d="m 55.454546,45.636364 c 0,6.326171 -10.338153,11.454545 -23.09091,11.454545 -12.752757,0 -23.0909099,-5.128374 -23.0909099,-11.454545 0,-6.326171 10.3381529,-11.454545 23.0909099,-11.454545 12.752757,0 23.09091,5.128374 23.09091,11.454545 z"
         sodipodi:ry="11.454545"
         sodipodi:rx="23.09091"
         sodipodi:cy="45.636364"
         sodipodi:cx="32.363636"
         id="path6504"
         style="fill:#ff1d1d;fill-opacity:1;stroke:#000000;stroke-width:4.4000001;stroke-linecap:round;stroke-miterlimit:0;stroke-opacity:1;stroke-dasharray:none"
         sodipodi:type="arc" />
      <path
         d="m 22.727273,20.454546 c 0,0.451869 -0.203507,0.818182 -0.454545,0.818182 -0.251039,0 -0.454546,-0.366313 -0.454546,-0.818182 0,-0.451869 0.203507,-0.818182 0.454546,-0.818182 0.251038,0 0.454545,0.366313 0.454545,0.818182 z"
         sodipodi:ry="0.81818181"
         sodipodi:rx="0.45454547"
         sodipodi:cy="20.454546"
         sodipodi:cx="22.272728"
         id="path6506"
         style="fill:#ff1d1d;fill-opacity:1;stroke:#000000;stroke-width:4.4000001;stroke-linecap:round;stroke-miterlimit:0;stroke-opacity:1;stroke-dasharray:none"
         sodipodi:type="arc" />
      <path
         d="m 47.090908,22.363636 c 0,0.301246 -0.162805,0.545455 -0.363636,0.545455 -0.200831,0 -0.363636,-0.244209 -0.363636,-0.545455 0,-0.301246 0.162805,-0.545455 0.363636,-0.545455 0.200831,0 0.363636,0.244209 0.363636,0.545455 z"
         sodipodi:ry="0.54545456"
         sodipodi:rx="0.36363637"
         sodipodi:cy="22.363636"
         sodipodi:cx="46.727272"
         id="path6508"
         style="fill:#ff1d1d;fill-opacity:1;stroke:#000000;stroke-width:4.4000001;stroke-linecap:round;stroke-miterlimit:0;stroke-opacity:1;stroke-dasharray:none"
         sodipodi:type="arc" />
    </g>
    <g
       inkscape:label="Layer 1"
       id="layer1-89"
       transform="matrix(3.812381,0,0,3.4087389,469.38879,545.5336)">
      <path
         d="M 51.272726,25.181818 C 51.272726,37.783952 43.45806,48 33.81818,48 24.178301,48 16.363634,37.783952 16.363634,25.181818 c 0,-12.602134 7.814667,-22.818182 17.454546,-22.818182 9.63988,0 17.454546,10.216048 17.454546,22.818182 z"
         sodipodi:ry="22.818182"
         sodipodi:rx="17.454546"
         sodipodi:cy="25.181818"
         sodipodi:cx="33.81818"
         id="path5396"
         style="fill:#ffffff;fill-opacity:1;stroke:#000000;stroke-width:4.4000001;stroke-linecap:round;stroke-miterlimit:0;stroke-opacity:1;stroke-dasharray:none"
         sodipodi:type="arc" />
      <path
         d="m 36.545455,16.09091 c 0,3.263501 -2.889798,5.909091 -6.454545,5.909091 -3.564747,0 -6.454546,-2.64559 -6.454546,-5.909091 0,-3.263501 2.889799,-5.909091 6.454546,-5.909091 3.564747,0 6.454545,2.64559 6.454545,5.909091 z"
         sodipodi:ry="5.909091"
         sodipodi:rx="6.4545455"
         sodipodi:cy="16.09091"
         sodipodi:cx="30.09091"
         id="path5906"
         style="fill:#ffffff;fill-opacity:1;stroke:#000000;stroke-width:4.4000001;stroke-linecap:round;stroke-miterlimit:0;stroke-opacity:1;stroke-dasharray:none"
         sodipodi:type="arc" />
      <path
         d="m 36.545455,16.09091 c 0,3.263501 -2.889798,5.909091 -6.454545,5.909091 -3.564747,0 -6.454546,-2.64559 -6.454546,-5.909091 0,-3.263501 2.889799,-5.909091 6.454546,-5.909091 3.564747,0 6.454545,2.64559 6.454545,5.909091 z"
         sodipodi:ry="5.909091"
         sodipodi:rx="6.4545455"
         sodipodi:cy="16.09091"
         sodipodi:cx="30.09091"
         id="path5906-6"
         style="fill:#ffffff;fill-opacity:1;stroke:#000000;stroke-width:4.4000001;stroke-linecap:round;stroke-miterlimit:0;stroke-opacity:1;stroke-dasharray:none"
         sodipodi:type="arc"
         transform="translate(12.454545,0.63636279)" />
      <rect
         transform="matrix(0.93191951,0.36266518,-0.43821975,0.89886787,0,0)"
         y="28.532375"
         x="22.703453"
         height="8.4702873"
         width="54.865726"
         id="rect5926"
         style="fill:#ffffff;fill-opacity:1;stroke:#000000;stroke-width:5.60474443;stroke-linecap:round;stroke-miterlimit:0;stroke-opacity:1;stroke-dasharray:none" />
      <rect
         transform="matrix(0.93730731,-0.34850394,0.48902302,0.87227088,0,0)"
         y="53.774384"
         x="-21.614191"
         height="8.0078554"
         width="54.905132"
         id="rect5926-2"
         style="fill:#ffffff;fill-opacity:1;stroke:#000000;stroke-width:5.45155907;stroke-linecap:round;stroke-miterlimit:0;stroke-opacity:1;stroke-dasharray:none" />
      <rect
         transform="matrix(0.9996854,-0.02508172,0.01234366,0.99992381,0,0)"
         y="33.25478"
         x="22.037903"
         height="5.3478727"
         width="22.512703"
         id="rect5926-2-0"
         style="fill:#ffffff;fill-opacity:1;stroke:#000000;stroke-width:2.85272884;stroke-linecap:round;stroke-miterlimit:0;stroke-opacity:1;stroke-dasharray:none" />
    </g>
    <text
       xml:space="preserve"
       style="font-size:116.35982513px;font-style:normal;font-weight:normal;line-height:125%;letter-spacing:0px;word-spacing:0px;fill:#000000;fill-opacity:1;stroke:none;font-family:Sans"
       x="877.12054"
       y="235.03072"
       id="text7296"
       sodipodi:linespacing="125%"
       transform="scale(0.84673159,1.1810118)"><tspan
         sodipodi:role="line"
         id="tspan7298"
         x="877.12054"
         y="235.03072">Yeast (you)</tspan></text>
    <text
       xml:space="preserve"
       style="font-size:116.07682037px;font-style:normal;font-weight:normal;line-height:125%;letter-spacing:0px;word-spacing:0px;fill:#000000;fill-opacity:1;stroke:none;font-family:Sans"
       x="1286.7986"
       y="405.68094"
       id="text7300"
       sodipodi:linespacing="125%"
       transform="scale(0.97919868,1.0212432)"><tspan
         sodipodi:role="line"
         id="tspan7302"
         x="1286.7986"
         y="405.68094">Protein</tspan></text>
    <text
       xml:space="preserve"
       style="font-size:141.00325012px;font-style:normal;font-weight:normal;line-height:125%;letter-spacing:0px;word-spacing:0px;fill:#000000;fill-opacity:1;stroke:none;font-family:Sans"
       x="436.53842"
       y="451.84964"
       id="text7304"
       sodipodi:linespacing="125%"
       transform="scale(0.85111808,1.1749251)"><tspan
         sodipodi:role="line"
         id="tspan7306"
         x="436.53842"
         y="451.84964">Alcohol</tspan></text>
    <text
       xml:space="preserve"
       style="font-size:55.9412117px;font-style:normal;font-weight:normal;line-height:125%;letter-spacing:0px;word-spacing:0px;fill:#000000;fill-opacity:1;stroke:none;font-family:Sans"
       x="915.52551"
       y="719.81049"
       id="text7308"
       sodipodi:linespacing="125%"
       transform="scale(1.0606899,0.94278262)"><tspan
         sodipodi:role="line"
         x="915.52551"
         y="719.81049"
         id="tspan7324">Proteine will increase your live</tspan><tspan
         sodipodi:role="line"
         x="915.52551"
         y="789.737"
         id="tspan7346">Alcohol will heavily damage you live</tspan><tspan
         sodipodi:role="line"
         x="915.52551"
         y="859.66351"
         id="tspan7348">Try to brew a strong beer!</tspan></text>
    <text
       xml:space="preserve"
       style="font-size:78.66059113px;font-style:normal;font-weight:normal;line-height:125%;letter-spacing:0px;word-spacing:0px;fill:#000000;fill-opacity:1;stroke:none;font-family:Sans"
       x="915.11652"
       y="725.62006"
       id="text7350"
       sodipodi:linespacing="125%"
       transform="scale(0.7352979,1.359993)"><tspan
         sodipodi:role="line"
         id="tspan7352"
         x="915.11652"
         y="725.62006">Use Arrow Keys or ASDW</tspan></text>
    <text
       xml:space="preserve"
       style="font-size:208.00744629px;font-style:normal;font-weight:normal;line-height:125%;letter-spacing:0px;word-spacing:0px;fill:#000000;fill-opacity:1;stroke:none;font-family:Sans"
       x="326.48477"
       y="162.95451"
       id="text7354"
       sodipodi:linespacing="125%"
       transform="scale(1.1038737,0.90590074)"><tspan
         sodipodi:role="line"
         id="tspan7356"
         x="326.48477"
         y="162.95451">BEER 3000!!!</tspan></text>
    <rect
       style="fill:#ffbf28;fill-opacity:1;stroke:none"
       id="rect7880"
       width="14.285714"
       height="11.428572"
       x="880"
       y="1008.5714"
       transform="translate(0,-27.637817)" />
  </g>
</svg>
